<svg height="30" width="30" xmlns="http://www.w3.org/2000/svg" viewBox="0 0 512 512" xml:space="preserve"><circle style="fill:#ffad66" cx="256" cy="256" r="247.394"/><path style="fill:#eb550c" d="M256 114.383c-9.589 0-17.362 7.774-17.362 17.362v20.765h34.723v-20.767c.001-9.586-7.772-17.36-17.361-17.36zM335.709 237.372l.327.065C317.277 333.486 256 360.579 256 360.579l-21.787-144.994 101.496 21.787z"/><path style="fill:#f70" d="M256 215.585v144.994s-61.32-27.103-80.112-123.196c.033-.011 80.112-21.798 80.112-21.798z"/><path style="fill:#ff9233" d="M341.439 178.209c.011 22.169-1.994 41.831-5.403 59.229l-.327-.065H175.921c-3.431-17.375-5.436-37.017-5.436-59.164 9.663 14.064 25.186 23.247 42.736 23.247 17.539 0 33.062-9.183 42.736-23.247 9.684 14.064 25.208 23.247 42.747 23.247 17.549 0 33.061-9.184 42.735-23.247z"/><path d="M437.019 74.981C388.668 26.628 324.38 0 256 0S123.332 26.628 74.981 74.981C26.628 123.332 0 187.62 0 256s26.628 132.668 74.981 181.019C123.332 485.372 187.62 512 256 512s132.668-26.628 181.019-74.981C485.372 388.668 512 324.38 512 256s-26.628-132.668-74.981-181.019zm-33.683 369.91-1.459-2.008a8.17 8.17 0 0 0-11.412-1.806 8.17 8.17 0 0 0-1.807 11.412l1.473 2.027a239.91 239.91 0 0 1-29.257 16.946l-1.039-2.333a8.17 8.17 0 0 0-14.928 6.646l1.046 2.349a237.605 237.605 0 0 1-32.16 10.474l-.539-2.538a8.167 8.167 0 0 0-9.69-6.293 8.17 8.17 0 0 0-6.293 9.69l.541 2.545a239.686 239.686 0 0 1-33.641 3.503v-2.569a8.17 8.17 0 0 0-16.34 0v2.569a239.836 239.836 0 0 1-33.641-3.503l.541-2.545a8.17 8.17 0 1 0-15.983-3.397l-.539 2.538a237.56 237.56 0 0 1-32.16-10.474l1.046-2.349a8.17 8.17 0 0 0-4.141-10.787 8.17 8.17 0 0 0-10.787 4.141l-1.039 2.333a239.78 239.78 0 0 1-29.257-16.946l1.473-2.027a8.17 8.17 0 0 0-1.807-11.412 8.169 8.169 0 0 0-11.412 1.806l-1.459 2.008a241.673 241.673 0 0 1-25.103-22.631l1.828-1.645a8.171 8.171 0 0 0-10.933-12.145l-1.831 1.649a241.03 241.03 0 0 1-19.903-27.322l2.171-1.253a8.17 8.17 0 0 0-8.171-14.15l-2.196 1.268a238.577 238.577 0 0 1-13.807-30.872l2.465-.801a8.168 8.168 0 0 0 5.245-10.294c-1.394-4.292-6.002-6.644-10.294-5.246l-2.474.804a237.7 237.7 0 0 1-7.015-33.089l2.57-.27a8.171 8.171 0 0 0-1.709-16.252l-2.562.27a240.34 240.34 0 0 1-.608-16.911c0-5.686.214-11.323.605-16.91l2.562.27a8.173 8.173 0 0 0 8.98-7.27 8.17 8.17 0 0 0-7.271-8.98l-2.57-.27a237.99 237.99 0 0 1 7.015-33.089l2.474.804c.839.272 1.69.402 2.526.402a8.172 8.172 0 0 0 2.523-15.943l-2.465-.801a238.38 238.38 0 0 1 13.807-30.872l2.196 1.268a8.168 8.168 0 0 0 11.16-2.99 8.171 8.171 0 0 0-2.99-11.161l-2.171-1.253a240.94 240.94 0 0 1 19.903-27.322l1.831 1.649a8.14 8.14 0 0 0 5.464 2.098 8.17 8.17 0 0 0 5.468-14.243l-1.828-1.645a241.446 241.446 0 0 1 25.103-22.631l1.459 2.008a8.155 8.155 0 0 0 6.617 3.368 8.17 8.17 0 0 0 6.602-12.974l-1.473-2.027a239.91 239.91 0 0 1 29.257-16.946l1.039 2.333a8.171 8.171 0 0 0 10.787 4.141 8.172 8.172 0 0 0 4.141-10.787l-1.046-2.349a237.605 237.605 0 0 1 32.16-10.474l.539 2.539a8.173 8.173 0 0 0 7.984 6.473 8.18 8.18 0 0 0 1.706-.181 8.17 8.17 0 0 0 6.293-9.69l-.541-2.545a239.686 239.686 0 0 1 33.641-3.503v2.567a8.17 8.17 0 0 0 16.34 0v-2.569a239.836 239.836 0 0 1 33.641 3.503l-.541 2.545a8.17 8.17 0 0 0 6.293 9.69 8.18 8.18 0 0 0 1.706.181 8.174 8.174 0 0 0 7.984-6.473l.539-2.539a237.56 237.56 0 0 1 32.16 10.474l-1.046 2.349a8.17 8.17 0 0 0 7.459 11.495 8.17 8.17 0 0 0 7.469-4.849l1.039-2.333a239.78 239.78 0 0 1 29.257 16.946l-1.473 2.027a8.17 8.17 0 0 0 13.219 9.606l1.459-2.008a241.673 241.673 0 0 1 25.103 22.631l-1.828 1.645a8.171 8.171 0 0 0 10.932 12.145l1.831-1.649a241.03 241.03 0 0 1 19.903 27.322l-2.17 1.253a8.17 8.17 0 0 0 8.17 14.151l2.196-1.268a238.53 238.53 0 0 1 13.807 30.873l-2.465.801a8.17 8.17 0 0 0-5.245 10.296 8.174 8.174 0 0 0 7.768 5.647c.837 0 1.687-.13 2.526-.402l2.474-.804a237.847 237.847 0 0 1 7.016 33.089l-2.57.27a8.171 8.171 0 0 0 1.709 16.25l2.562-.27c.394 5.59.608 11.226.608 16.912 0 5.686-.214 11.323-.605 16.91l-2.562-.27c-4.491-.473-8.508 2.783-8.98 7.271s2.784 8.508 7.271 8.98l2.57.27a237.99 237.99 0 0 1-7.015 33.089l-2.474-.804a8.169 8.169 0 0 0-10.294 5.246 8.17 8.17 0 0 0 5.245 10.294l2.465.801a238.455 238.455 0 0 1-13.807 30.873l-2.196-1.268a8.17 8.17 0 1 0-8.171 14.15l2.17 1.253a240.94 240.94 0 0 1-19.903 27.322l-1.831-1.649a8.171 8.171 0 0 0-10.933 12.145l1.828 1.645a241.55 241.55 0 0 1-25.1 22.631zm-7.113-154.697-9.809 5.703a150.786 150.786 0 0 0 7.28-27.085l21.942-27.94a8.17 8.17 0 0 0-1.379-11.472 8.17 8.17 0 0 0-11.472 1.379l-6.971 8.877a149.534 149.534 0 0 0-4.104-31.392c-1.055-4.387-5.465-7.092-9.853-6.035a8.17 8.17 0 0 0-6.035 9.853c4.032 16.779 4.774 34.022 2.203 51.248-.035.232-.083.459-.118.69l-.016.098c-2.629 16.946-8.285 32.737-16.395 46.845a8.156 8.156 0 0 0-1.337 2.257 133.41 133.41 0 0 1-31.511 35.874 8.138 8.138 0 0 0-2.902 2.208 133.477 133.477 0 0 1-43.191 21.441 8.15 8.15 0 0 0-1.656.455 135.627 135.627 0 0 1-16.726 3.451v-11.137c7.974-4.556 24.544-15.668 41.022-36.892 20.277-26.119 44.444-73.416 44.418-150.414a8.17 8.17 0 0 0-14.9-4.628c-8.615 12.521-21.739 19.702-36.007 19.702-13.469 0-25.922-6.411-34.535-17.669V160.68h9.192a8.17 8.17 0 0 0 8.17-8.17v-20.767c0-14.078-11.454-25.532-25.532-25.532-14.079 0-25.532 11.454-25.532 25.532v20.767a8.17 8.17 0 0 0 8.17 8.17h9.192v14.807c-8.603 11.334-21.091 17.793-34.613 17.793-14.274 0-27.392-7.18-35.993-19.698a8.17 8.17 0 0 0-14.903 4.626c0 22.419 2.061 42.303 5.469 59.896.053.599.168 1.18.343 1.734 8.397 41.885 24.477 70.52 38.664 88.782 16.486 21.224 33.063 32.337 41.04 36.891v11.135a135.808 135.808 0 0 1-16.721-3.45 8.135 8.135 0 0 0-1.663-.456 133.493 133.493 0 0 1-43.187-21.439 8.154 8.154 0 0 0-2.905-2.21 133.421 133.421 0 0 1-31.505-35.867 8.172 8.172 0 0 0-1.342-2.267c-8.107-14.103-13.761-29.89-16.391-46.831-.007-.04-.013-.08-.021-.119-.035-.228-.082-.451-.115-.679-2.571-17.226-1.829-34.47 2.203-51.248a8.17 8.17 0 0 0-6.035-9.853 8.167 8.167 0 0 0-9.853 6.035 149.6 149.6 0 0 0-4.104 31.392l-6.971-8.877a8.171 8.171 0 0 0-12.851 10.093l21.942 27.939a150.642 150.642 0 0 0 7.28 27.085l-9.808-5.702a8.17 8.17 0 0 0-11.169 2.958 8.17 8.17 0 0 0 2.957 11.169l30.804 17.909a150.81 150.81 0 0 0 16.746 22.417l-11.211-1.636a8.17 8.17 0 0 0-2.361 16.169l35.172 5.134a151.873 151.873 0 0 0 23.935 14.619l-11.041 2.621a8.172 8.172 0 0 0 3.775 15.9l34.644-8.224a149.562 149.562 0 0 0 19.797 3.92v11.004a8.17 8.17 0 0 0 16.34 0v-11.005a149.404 149.404 0 0 0 19.797-3.921l34.644 8.224a8.175 8.175 0 0 0 9.837-6.063 8.17 8.17 0 0 0-6.062-9.837l-11.041-2.621a151.993 151.993 0 0 0 23.935-14.619l35.172-5.134c4.465-.651 7.557-4.8 6.904-9.264s-4.802-7.557-9.264-6.904l-11.212 1.636a150.81 150.81 0 0 0 16.746-22.417l30.804-17.909a8.17 8.17 0 1 0-8.216-14.124zM246.809 131.745c0-5.068 4.123-9.192 9.192-9.192s9.192 4.123 9.192 9.192v12.595H246.81v-12.595h-.001zm-33.593 77.875c16.007 0 31.373-6.788 42.741-18.55 11.378 11.761 26.747 18.55 42.748 18.55 12.185 0 23.998-3.934 33.959-10.999-.669 10.923-1.87 21.101-3.481 30.586h-146.44c-1.612-9.51-2.808-19.682-3.473-30.576 9.954 7.059 21.763 10.989 33.946 10.989zm-27.15 35.928h61.767v2.723a8.17 8.17 0 0 0 16.34 0v-2.723h61.681c-8.004 33.518-21.178 56.879-32.925 72.219-10.503 13.717-21.081 22.773-28.756 28.284v-65.1a8.17 8.17 0 0 0-16.34 0v65.11c-16.811-12.102-47.654-41.461-61.767-100.513zM81.917 305.079a8.17 8.17 0 0 1-5.651 10.078 8.188 8.188 0 0 1-2.218.308 8.173 8.173 0 0 1-7.86-5.959A197.393 197.393 0 0 1 58.825 256c0-108.723 88.452-197.174 197.174-197.174S453.174 147.277 453.174 256c0 18.147-2.476 36.145-7.359 53.495a8.171 8.171 0 0 1-15.73-4.426A181.13 181.13 0 0 0 436.832 256c0-99.713-81.121-180.834-180.834-180.834S75.166 156.287 75.166 256c0 16.654 2.271 33.167 6.751 49.079zm338.061 53.598c-4.805 0-8.715-3.91-8.715-8.715s3.91-8.715 8.715-8.715 8.715 3.91 8.715 8.715-3.909 8.715-8.715 8.715zm-22.096 22.451a8.171 8.171 0 0 1 .224 11.553c-37.527 39.01-87.995 60.493-142.106 60.493-54.119 0-104.592-21.489-142.119-60.509a8.17 8.17 0 1 1 11.777-11.327c34.418 35.785 80.709 55.494 130.342 55.494 49.627 0 95.912-19.703 130.329-55.482a8.174 8.174 0 0 1 11.553-.222zm-297.147-31.167c0 4.805-3.91 8.715-8.715 8.715s-8.715-3.91-8.715-8.715 3.91-8.715 8.715-8.715c4.806 0 8.715 3.91 8.715 8.715z"/></svg>